<svg width="17" height="17" viewBox="0 0 17 17" fill="none" xmlns="http://www.w3.org/2000/svg">
<g clip-path="url(#clip0_1_370)">
<path d="M9.62695 1.84583C9.62695 1.2927 9.18008 0.845825 8.62695 0.845825C8.07383 0.845825 7.62695 1.2927 7.62695 1.84583V9.4302L5.3332 7.13645C4.94258 6.74583 4.3082 6.74583 3.91758 7.13645C3.52695 7.52708 3.52695 8.16145 3.91758 8.55208L7.91758 12.5521C8.3082 12.9427 8.94258 12.9427 9.3332 12.5521L13.3332 8.55208C13.7238 8.16145 13.7238 7.52708 13.3332 7.13645C12.9426 6.74583 12.3082 6.74583 11.9176 7.13645L9.62695 9.4302V1.84583ZM2.62695 11.8458C1.52383 11.8458 0.626953 12.7427 0.626953 13.8458V14.8458C0.626953 15.9489 1.52383 16.8458 2.62695 16.8458H14.627C15.7301 16.8458 16.627 15.9489 16.627 14.8458V13.8458C16.627 12.7427 15.7301 11.8458 14.627 11.8458H11.4551L10.0395 13.2614C9.2582 14.0427 7.99258 14.0427 7.21133 13.2614L5.79883 11.8458H2.62695ZM14.127 13.5958C14.3259 13.5958 14.5166 13.6748 14.6573 13.8155C14.7979 13.9561 14.877 14.1469 14.877 14.3458C14.877 14.5447 14.7979 14.7355 14.6573 14.8762C14.5166 15.0168 14.3259 15.0958 14.127 15.0958C13.928 15.0958 13.7373 15.0168 13.5966 14.8762C13.456 14.7355 13.377 14.5447 13.377 14.3458C13.377 14.1469 13.456 13.9561 13.5966 13.8155C13.7373 13.6748 13.928 13.5958 14.127 13.5958Z" fill="black"/>
</g>
<defs>
<clipPath id="clip0_1_370">
<rect width="16" height="16" fill="white" transform="translate(0.626953 0.845825)"/>
</clipPath>
</defs>
</svg>
