<svg width="32" height="33" viewBox="0 0 32 33" fill="none" xmlns="http://www.w3.org/2000/svg">
<path d="M11.3597 25.3935C11.3182 25.5594 11.2145 25.6424 11.0486 25.6424C10.7997 25.6424 10.6752 25.5594 10.6752 25.3935C10.7167 25.2691 10.8204 25.2068 10.9863 25.2068C11.1937 25.2068 11.3182 25.2691 11.3597 25.3935ZM9.42188 25.1446C9.3804 25.2691 9.46485 25.3728 9.67522 25.4557C9.88262 25.4972 10.0071 25.4557 10.0486 25.3313C10.09 25.1654 10.0071 25.0602 9.79966 25.0157C9.59225 24.9742 9.46633 25.0172 9.42188 25.1446ZM12.173 25.0157C11.9656 25.0602 11.8619 25.1654 11.8619 25.3313C11.9034 25.4557 12.0278 25.518 12.2352 25.518C12.4456 25.435 12.5508 25.3313 12.5508 25.2068C12.5093 25.0794 12.3834 25.0157 12.173 25.0157ZM16.2974 1.0824C11.8411 1.16536 8.19522 2.62314 5.35966 5.45573C2.52707 8.28832 1.06929 11.9135 0.986328 16.3313C1.02781 19.872 2.00707 22.9757 3.92411 25.6424C5.84114 28.3091 8.40411 30.1846 11.613 31.2691C12.3626 31.3105 12.7167 31.0602 12.6752 30.518C12.6752 30.352 12.6752 30.0394 12.6752 29.5802C12.6752 28.6231 12.6752 27.6646 12.6752 26.7046C12.5923 26.7046 12.1967 26.7461 11.4886 26.8291C10.736 26.8705 9.94337 26.7876 9.11077 26.5802C8.27818 26.3313 7.69448 25.7476 7.35966 24.8291C7.35966 24.7461 7.19374 24.4128 6.86188 23.8291C6.52707 23.2868 6.11077 22.8498 5.61299 22.518C5.53003 22.4765 5.36262 22.3091 5.11077 22.0157C4.8204 21.7668 5.02929 21.6217 5.73744 21.5802C5.77892 21.5387 6.07077 21.6217 6.61299 21.8291C7.15225 21.998 7.65151 22.4572 8.11077 23.2068C8.8604 24.3298 9.67374 24.8913 10.5508 24.8913C11.4663 24.8913 12.1745 24.7668 12.6752 24.518C12.8411 23.5165 13.1745 22.8083 13.6752 22.3935C11.8411 22.3105 10.2367 21.8513 8.86188 21.0157C7.48707 20.2246 6.75818 18.3713 6.67522 15.4557C6.67522 14.6231 6.79966 13.9357 7.04855 13.3935C7.25596 12.8513 7.61003 12.3298 8.11077 11.8291C8.02781 11.5802 7.94485 11.0809 7.86188 10.3313C7.77892 9.58166 7.92411 8.66462 8.29744 7.58018C9.04707 7.45573 9.92262 7.68536 10.9241 8.26906C11.9671 8.81129 12.53 9.14462 12.613 9.26906C13.8634 8.89277 15.176 8.70462 16.5508 8.70462C17.8841 8.70462 19.1967 8.89277 20.4886 9.26906C20.4886 9.22758 20.7582 9.03944 21.2974 8.70462C21.7982 8.37277 22.3819 8.08092 23.0485 7.82906C23.7152 7.53869 24.2989 7.45573 24.7997 7.58018C25.173 8.66462 25.3182 9.58166 25.2352 10.3313C25.1523 11.0809 25.0486 11.5802 24.9241 11.8291C25.4248 12.3298 25.8204 12.8513 26.1108 13.3935C26.4041 13.9357 26.5508 14.6231 26.5508 15.4557C26.5093 17.4557 26.1552 18.9342 25.4886 19.8913C24.7774 20.8098 23.8811 21.435 22.7997 21.7668C21.7152 22.1017 20.5686 22.3105 19.3597 22.3935C20.0263 22.8528 20.3804 23.8113 20.4219 25.2691C20.4219 26.8098 20.4219 28.1846 20.4219 29.3935C20.4219 29.9357 20.4219 30.3105 20.4219 30.518C20.3804 31.0602 20.736 31.3105 21.4886 31.2691C24.653 30.1846 27.1937 28.3091 29.1108 25.6424C30.9863 22.9757 31.9448 19.872 31.9863 16.3313C31.9448 13.4128 31.2367 10.8083 29.8619 8.51795C28.4456 6.22758 26.57 4.41573 24.2352 3.0824C21.8619 1.79055 19.216 1.12388 16.2974 1.0824ZM7.04855 22.6424C6.96559 22.7254 6.98633 22.8291 7.11077 22.9535C7.23522 23.0809 7.33892 23.1017 7.42188 23.0157C7.50781 22.9328 7.48707 22.8291 7.35966 22.7046C7.2767 22.5802 7.173 22.5594 7.04855 22.6424ZM6.35966 22.1446C6.35966 22.2276 6.42337 22.3105 6.55077 22.3935C6.67522 22.435 6.75818 22.4142 6.79966 22.3313C6.84114 22.2483 6.79966 22.1654 6.67522 22.0824C6.55077 22.038 6.44559 22.0587 6.35966 22.1446ZM8.42188 24.3313C8.33892 24.4557 8.36114 24.6009 8.48855 24.7668C8.65448 24.8913 8.79966 24.912 8.92411 24.8291C8.96559 24.7046 8.92411 24.5594 8.79966 24.3935C8.63374 24.2691 8.50781 24.2483 8.42188 24.3313ZM7.67522 23.4557C7.59225 23.5387 7.59225 23.6631 7.67522 23.8291C7.79966 23.9535 7.92411 23.995 8.04855 23.9535C8.13151 23.8705 8.13151 23.7461 8.04855 23.5802C7.92411 23.4142 7.79966 23.3728 7.67522 23.4557Z" fill="#00FFFF"/>
</svg>
