<svg width="29" height="33" viewBox="0 0 29 33" fill="none" xmlns="http://www.w3.org/2000/svg">
<path d="M26.1895 2.5802H2.18945C1.60575 2.5802 1.12723 2.76835 0.753898 3.14464C0.377601 3.55946 0.189453 4.03798 0.189453 4.5802V28.5802C0.189453 29.1224 0.377601 29.6009 0.753898 30.0158C1.12723 30.3921 1.60575 30.5802 2.18945 30.5802H26.1895C26.7732 30.5802 27.2517 30.3921 27.625 30.0158C28.0013 29.6009 28.1895 29.1224 28.1895 28.5802V4.5802C28.1895 4.03798 28.0013 3.55946 27.625 3.14464C27.2517 2.76835 26.7732 2.5802 26.1895 2.5802ZM8.69168 26.5802H8.62501H4.50056V13.2069H8.69168V26.5802ZM6.56279 11.3935C5.89612 11.3935 5.33464 11.1639 4.87834 10.7046C4.41908 10.2454 4.18945 9.68242 4.18945 9.01576C4.18945 8.30761 4.41908 7.72539 4.87834 7.26909C5.33464 6.80983 5.89612 6.5802 6.56279 6.5802C7.27093 6.5802 7.8339 6.80983 8.25168 7.26909C8.71093 7.72539 8.9613 8.30761 9.00279 9.01576C8.9613 9.68242 8.71093 10.2454 8.25168 10.7046C7.8339 11.1639 7.27093 11.3935 6.56279 11.3935ZM24.1895 26.5802H20.065V20.0824C20.1065 19.2469 20.0028 18.4543 19.7539 17.7046C19.5435 16.9965 18.9183 16.6009 17.8783 16.518C16.8354 16.5595 16.148 16.9135 15.8161 17.5802C15.5228 18.2469 15.3969 19.038 15.4383 19.9535V26.5802H11.2517V13.2069H15.2517V15.0158H15.3139C15.5657 14.4765 16.025 13.998 16.6917 13.5802C17.3583 13.1209 18.2117 12.8913 19.2517 12.8913C21.2932 12.9328 22.6472 13.5372 23.3139 14.7046C23.9806 15.9135 24.2724 17.435 24.1895 19.2691V26.5802Z" fill="#00FFFF"/>
</svg>
