<svg width="25" height="25" viewBox="0 0 25 25" fill="none" xmlns="http://www.w3.org/2000/svg">
<path d="M23.7976 8.0802L12.8309 0.766867C12.4554 0.517978 12.0798 0.517978 11.7042 0.766867L0.737578 8.0802C0.424245 8.26687 0.267578 8.54798 0.267578 8.92353V16.2369C0.267578 16.5813 0.424245 16.8624 0.737578 17.0802L11.7042 24.3935C12.0798 24.6424 12.4554 24.6424 12.8309 24.3935L23.7976 17.0802C24.1109 16.8624 24.2676 16.5813 24.2676 16.2369V8.92353C24.2676 8.54798 24.1109 8.26687 23.7976 8.0802ZM13.2976 3.53353L21.3609 8.92353L17.7509 11.3135L13.2976 8.3602V3.53353ZM11.2376 3.53353V8.3602L6.78424 11.3135L3.17424 8.92353L11.2376 3.53353ZM2.33091 10.8469L4.90758 12.5802L2.33091 14.3135V10.8469ZM11.2376 21.6269L3.17424 16.2369L6.78424 13.8469L11.2376 16.8002V21.6269ZM12.2676 15.0169L8.61091 12.5802L12.2676 10.1435L15.9242 12.5802L12.2676 15.0169ZM13.2976 21.6269V16.8002L17.7509 13.8469L21.3609 16.2369L13.2976 21.6269ZM22.2042 14.3135L19.6276 12.5802L22.2042 10.8469V14.3135Z" fill="#00FFFF"/>
</svg>
