<svg width="21" height="25" viewBox="0 0 21 25" fill="none" xmlns="http://www.w3.org/2000/svg">
<path d="M20.2578 16.2368L18.194 14.3135L18.2874 14.4068L10.3154 6.58016C10.1287 6.42461 9.92644 6.40905 9.70861 6.5335L6.98795 8.59683C6.80124 8.7835 6.78568 8.97016 6.94127 9.15683L10.1287 12.2068C10.3488 12.3624 10.5677 12.3624 10.7855 12.2068C11.0367 12.0491 11.2556 12.0491 11.4424 12.2068L15.38 16.0502C15.5689 16.2368 15.5689 16.4235 15.38 16.6102L10.9722 20.0802C10.7544 20.2357 10.5355 20.2357 10.3154 20.0802L3.19036 13.1435C3.00365 12.9857 2.78471 12.9857 2.53354 13.1435L0.423024 14.7368C0.205193 14.9235 0.174074 15.1268 0.329668 15.3468L10.1287 24.5335C10.1287 24.5335 10.2076 24.5646 10.3654 24.6268C10.521 24.6891 10.7077 24.6424 10.9256 24.4868L20.2112 16.8002C20.3979 16.6113 20.4134 16.4235 20.2578 16.2368ZM20.7246 10.3768L10.8789 0.720165C10.8167 0.657943 10.7233 0.611277 10.5988 0.580165C10.4743 0.549054 10.3021 0.611277 10.082 0.766832L0.423024 8.36016C0.205193 8.54905 0.174074 8.73683 0.329668 8.9235L2.34682 10.8935L10.3654 18.6268C10.5833 18.7824 10.8167 18.7824 11.0656 18.6268L13.4128 16.8002L13.7396 16.5168C13.9574 16.3302 13.973 16.1435 13.7863 15.9568L11.1156 13.3768C10.8956 13.2213 10.6766 13.2213 10.4588 13.3768C10.2076 13.5324 9.98868 13.5324 9.80196 13.3768L5.34755 9.0635C5.19196 8.87683 5.20752 8.69016 5.39423 8.5035L9.70861 5.12683C9.95756 4.97128 10.1765 4.98683 10.3654 5.1735L17.9139 12.6268C18.1006 12.7824 18.3185 12.7824 18.5674 12.6268L20.6779 10.9402C20.898 10.7513 20.9135 10.5635 20.7246 10.3768Z" fill="#00FFFF"/>
</svg>
