<svg width="37" height="33" viewBox="0 0 37 33" fill="none" xmlns="http://www.w3.org/2000/svg">
<path d="M34.7656 8.33131C34.2679 6.78761 33.2471 5.76687 31.7034 5.26909C30.7049 5.05872 29.1642 4.89131 27.0812 4.76687C24.9982 4.6839 23.0604 4.62168 21.2679 4.5802C19.4753 4.5802 18.5167 4.5802 18.3923 4.5802C18.2679 4.5802 17.3093 4.5802 15.5167 4.5802C13.7242 4.62168 11.7864 4.6839 9.70341 4.76687C7.62045 4.89131 6.07971 5.05872 5.08119 5.26909C3.53749 5.76687 2.51674 6.78761 2.01897 8.33131C1.8086 9.28835 1.64119 10.3921 1.51674 11.6424C1.43378 12.9343 1.37156 14.0809 1.33008 15.0824C1.33008 16.0395 1.33008 16.5387 1.33008 16.5802C1.33008 16.6632 1.33008 17.1846 1.33008 18.1446C1.37156 19.1432 1.43378 20.2676 1.51674 21.518C1.64119 22.8098 1.8086 23.9343 2.01897 24.8913C2.51674 26.435 3.53749 27.435 5.08119 27.8913C6.07971 28.1017 7.62045 28.2691 9.70341 28.3935C11.7864 28.4765 13.7242 28.5387 15.5167 28.5802C17.3093 28.5802 18.2679 28.5802 18.3923 28.5802C18.5167 28.5802 19.4753 28.5802 21.2679 28.5802C23.0604 28.5387 24.9982 28.4765 27.0812 28.3935C29.1642 28.2691 30.7049 28.1017 31.7034 27.8913C33.2471 27.435 34.2679 26.435 34.7656 24.8913C34.976 23.9343 35.1434 22.8098 35.2679 21.518C35.3508 20.2676 35.413 19.1432 35.4545 18.1446C35.4545 17.1846 35.4545 16.6632 35.4545 16.5802C35.4545 16.5387 35.4545 16.0395 35.4545 15.0824C35.413 14.0809 35.3508 12.9343 35.2679 11.6424C35.1434 10.3921 34.976 9.28835 34.7656 8.33131ZM14.8945 21.7046V11.518L23.8279 16.5802L14.8945 21.7046Z" fill="#00FFFF"/>
</svg>
